<?xml version="1.0" encoding="utf-8"?>
<!-- Generator: Adobe Illustrator 24.0.2, SVG Export Plug-In . SVG Version: 6.00 Build 0)  -->
<svg version="1.1" id="Layer_1" xmlns="http://www.w3.org/2000/svg" xmlns:xlink="http://www.w3.org/1999/xlink" x="0px" y="0px"
	 viewBox="0 0 36.3 30.7" style="enable-background:new 0 0 36.3 30.7;" xml:space="preserve">
<style type="text/css">
	.st0{fill:#FFFBF2;}
	.st1{fill:#D6D6D6;}
</style>
<polygon class="st0" points="-866.4,-260.8 -866.4,-560.8 -1666.4,-560.8 -1666.4,-260.8 -1666.4,339.2 -866.4,339.2 "/>
<g>
	<path class="st1" d="M7.6,7.7H22c0.6,0,1-0.5,1-1s-0.5-1-1-1H7.6c-0.6,0-1,0.5-1,1S7,7.7,7.6,7.7z"/>
	<path class="st1" d="M7.6,13H22c0.6,0,1-0.5,1-1c0-0.6-0.5-1-1-1H7.6c-0.6,0-1,0.5-1,1C6.5,12.6,7,13,7.6,13z"/>
	<path class="st1" d="M23.1,17.2c0-0.6-0.5-1-1-1H7.6c-0.6,0-1,0.5-1,1c0,0.6,0.5,1,1,1H22C22.6,18.3,23.1,17.8,23.1,17.2z"/>
	<path class="st1" d="M35.4,13.7L35.4,13.7L34,12.5c-0.5-0.5-1.2-0.6-1.9-0.6c-0.7,0.1-1.3,0.4-1.8,1l-0.8,0.9V3.5
		C29.5,1.6,27.9,0,26,0H3.5C1.6,0,0,1.6,0,3.5v26.1c0,0.4,0.2,0.8,0.6,1c0.2,0.1,0.3,0.1,0.5,0.1c0.2,0,0.5-0.1,0.6-0.2l8-6.5h11.9
		c-0.1,0.2-0.1,0.4-0.2,0.6l-0.7,3c-0.2,0.6,0.1,1.3,0.6,1.8c0.3,0.3,0.7,0.4,1.1,0.4c0.2,0,0.5,0,0.7-0.2l2.8-1.2
		c0.8-0.4,1.6-1,2.2-1.6l7.6-9.2C36.6,16.2,36.5,14.6,35.4,13.7z M9.4,21.8c-0.2,0-0.5,0.1-0.6,0.2l-6.6,5.4V3.5
		c0-0.8,0.6-1.4,1.4-1.4h22.5c0.8,0,1.4,0.6,1.4,1.4v12.8l-4.6,5.5H9.4z M25.1,26.3l-2.1,1l0.5-2.3c0.1-0.5,0.3-0.8,0.6-1.2l2.2,1.8
		C25.9,25.8,25.5,26.1,25.1,26.3z M34.1,16l-6.5,7.9l-2.3-1.9l6.5-7.9c0.1-0.1,0.2-0.2,0.4-0.2h0c0.1,0,0.2,0,0.3,0.1l1.4,1.2
		C34.3,15.5,34.3,15.8,34.1,16z"/>
</g>
</svg>
