<svg id="Layer_1" data-name="Layer 1" xmlns="http://www.w3.org/2000/svg" viewBox="0 0 119.76 54.31"><path d="M2,31.69a2.06,2.06,0,0,1-2-2V2.7a2,2,0,0,1,2-2H8.38a4.27,4.27,0,0,1,3,2L24.42,22.83V2.66a2,2,0,0,1,2-2h3.73a2,2,0,0,1,2,2v27a2,2,0,0,1-2,2H23a4.2,4.2,0,0,1-3.14-2l-12-18.57V29.65a2.06,2.06,0,0,1-2,2Z"/><path d="M38.43,2.7a2,2,0,0,1,2-2h4a2,2,0,0,1,2.08,2v27a2.07,2.07,0,0,1-2.08,2h-4a2,2,0,0,1-2-2Z"/><path d="M54.83,31.69a2.07,2.07,0,0,1-2-2.08V2.7a2.07,2.07,0,0,1,2-2.08H58.9a2.07,2.07,0,0,1,2,2.08V13.08H65.6c2.52,0,4.34-1.29,6.07-4.39L75,2.7A3.66,3.66,0,0,1,78.14.62h5c1.11,0,1.33.89.66,2.08l-4.7,8.51c-1.1,2-2.57,4.08-5.58,4.79,2.13.44,4.34,3.15,5.58,5.05l5.41,8.6c.71,1.15.4,2-.75,2h-5a4.49,4.49,0,0,1-3.33-2l-3.81-6C70,21,68.39,19.19,65.6,19.19H60.94v10.5a2,2,0,0,1-2,2Z"/><path d="M102.34,0c11.08,0,17.42,4.65,17.42,16.18s-6.34,16.17-17.42,16.17S84.92,27.7,84.92,16.18,91.26,0,102.34,0M93.08,16.18c0,6.65,2.61,10.32,9.26,10.32s9.26-3.67,9.26-10.32S109,5.85,102.34,5.85s-9.26,3.68-9.26,10.33"/><path d="M10.44,54.21a1.72,1.72,0,0,1-1.5-1.1l-4.31-12V53a1.15,1.15,0,0,1-1.15,1.17H1.28A1.15,1.15,0,0,1,.13,53V37.88a1.14,1.14,0,0,1,1.13-1.17h5a1.66,1.66,0,0,1,1.48,1.15l3.6,10.42,3.6-10.42a1.66,1.66,0,0,1,1.48-1.15h5a1.14,1.14,0,0,1,1.13,1.17V53a1.15,1.15,0,0,1-1.15,1.17h-2.2A1.15,1.15,0,0,1,18,53V41.11l-4.3,12a1.75,1.75,0,0,1-1.5,1.1Z"/><path d="M27.62,41.46c1-3.88,4.55-4.75,8.1-4.75h6.57a1.09,1.09,0,0,1,1.06,1.12V53.09a1.14,1.14,0,0,1-1.15,1.12H39.9a1.13,1.13,0,0,1-1.15-1.15V50H30.07l-.83,3.07a1.57,1.57,0,0,1-1.45,1.15h-2.4a.83.83,0,0,1-.85-1.12ZM31,46.53h7.78V40.16H35.27A3.23,3.23,0,0,0,32,42.61Z"/><path d="M62,36.71a1.13,1.13,0,0,1,1.15,1.15V39A1.13,1.13,0,0,1,62,40.16H56.55V53.09a1.14,1.14,0,0,1-1.15,1.12H53.1A1.14,1.14,0,0,1,52,53.09V40.16H46.5A1.13,1.13,0,0,1,45.35,39V37.86a1.13,1.13,0,0,1,1.15-1.15Z"/><path d="M71.56,36.61h3.1c3.15,0,6.52,1.82,6.52,4.5a1.27,1.27,0,0,1-1.25,1.35H78.48a1.75,1.75,0,0,1-1.65-1.15,2.64,2.64,0,0,0-2.6-1.25H70.56c-1.5,0-2.15.52-2.15,1.4,0,2.9,13.22,1.22,13.22,7.75,0,3-1.75,5.1-7.75,5.1h-3.7c-3.15,0-6.52-1.83-6.52-4.5a1.26,1.26,0,0,1,1.25-1.35h1.45A1.73,1.73,0,0,1,68,49.61a2.64,2.64,0,0,0,2.6,1.25h4.27c1.5,0,2.15-.53,2.15-1.4,0-2.9-13.22-1.28-13.22-7.75,0-3,1.75-5.1,7.75-5.1"/><path d="M100.52,37.86V39a1.15,1.15,0,0,1-1.15,1.15H88.74v3.55h9.15A1.16,1.16,0,0,1,99,44.86V46a1.16,1.16,0,0,1-1.15,1.15H88.74v3.6h10.6a1.12,1.12,0,0,1,1.13,1.13v1.17a1.15,1.15,0,0,1-1.15,1.15h-14A1.15,1.15,0,0,1,84.14,53V37.83a1.14,1.14,0,0,1,1.15-1.12H99.37a1.15,1.15,0,0,1,1.15,1.15"/><path d="M109.67,36.61h3.1c3.15,0,6.53,1.82,6.53,4.5a1.27,1.27,0,0,1-1.25,1.35H116.6A1.75,1.75,0,0,1,115,41.31a2.64,2.64,0,0,0-2.6-1.25h-3.68c-1.5,0-2.15.52-2.15,1.4,0,2.9,13.23,1.22,13.23,7.75,0,3-1.75,5.1-7.75,5.1h-3.7c-3.16,0-6.53-1.83-6.53-4.5A1.26,1.26,0,0,1,103,48.46h1.45a1.73,1.73,0,0,1,1.65,1.15,2.64,2.64,0,0,0,2.6,1.25H113c1.5,0,2.15-.53,2.15-1.4,0-2.9-13.23-1.28-13.23-7.75,0-3,1.75-5.1,7.75-5.1"/></svg>