<?xml version="1.0" encoding="utf-8"?>
<!-- Generator: Adobe Illustrator 24.1.2, SVG Export Plug-In . SVG Version: 6.00 Build 0)  -->
<svg version="1.1" id="Layer_1" xmlns="http://www.w3.org/2000/svg" xmlns:xlink="http://www.w3.org/1999/xlink" x="0px" y="0px"
	 viewBox="0 0 119.8 54.3" style="enable-background:new 0 0 119.8 54.3;" xml:space="preserve">
<style type="text/css">
	.st0{fill:#FFFFFF;}
</style>
<path class="st0" d="M2,31.7c-1.1,0-2-0.9-2-2v-27c0-1.1,0.9-2,2-2h6.4c1.2,0.2,2.3,0.9,3,2l13,20.1V2.7c0-1.1,0.9-2,2-2h3.7
	c1.1,0,2,0.9,2,2c0,0,0,0,0,0v27c0,1.1-0.9,2-2,2H23c-1.3-0.1-2.5-0.9-3.1-2l-12-18.6v18.6c0,1.1-0.9,2-2,2L2,31.7z"/>
<path class="st0" d="M38.4,2.7c0-1.1,0.9-2,2-2h4c1.1,0,2,0.8,2.1,1.9c0,0,0,0.1,0,0.1v27c0,1.1-1,2-2.1,2h-4c-1.1,0-2-0.9-2-2V2.7z
	"/>
<path class="st0" d="M54.8,31.7c-1.1,0-2-1-2-2.1V2.7c0-1.1,0.9-2,2-2.1h4.1c1.1,0,2,1,2,2.1v10.4h4.7c2.5,0,4.3-1.3,6.1-4.4l3.3-6
	c0.6-1.2,1.8-2,3.1-2.1h5c1.1,0,1.3,0.9,0.7,2.1l-4.7,8.5c-1.1,2-2.6,4.1-5.6,4.8c2.1,0.4,4.3,3.1,5.6,5l5.4,8.6
	c0.7,1.1,0.4,2-0.8,2h-5c-1.4-0.1-2.6-0.9-3.3-2l-3.8-6c-1.6-2.6-3.2-4.5-6-4.5h-4.7v10.5c0,1.1-0.9,2-2,2H54.8z"/>
<path class="st0" d="M102.3,0c11.1,0,17.4,4.7,17.4,16.2s-6.3,16.2-17.4,16.2s-17.4-4.6-17.4-16.2S91.3,0,102.3,0 M93.1,16.2
	c0,6.6,2.6,10.3,9.3,10.3s9.3-3.7,9.3-10.3S109,5.8,102.3,5.8S93.1,9.5,93.1,16.2"/>
<path class="st0" d="M10.4,54.2c-0.7,0-1.3-0.5-1.5-1.1l-4.3-12V53c0,0.6-0.5,1.2-1.1,1.2c0,0,0,0,0,0H1.3c-0.6,0-1.2-0.5-1.2-1.1
	c0,0,0,0,0,0V37.9c0-0.6,0.5-1.2,1.1-1.2c0,0,0,0,0,0h5c0.7,0,1.3,0.5,1.5,1.2l3.6,10.4l3.6-10.4c0.2-0.7,0.8-1.1,1.5-1.2h5
	c0.6,0,1.1,0.5,1.1,1.1c0,0,0,0,0,0V53c0,0.6-0.5,1.2-1.1,1.2c0,0,0,0,0,0h-2.2c-0.6,0-1.2-0.5-1.2-1.1c0,0,0,0,0-0.1V41.1l-4.3,12
	c-0.2,0.6-0.8,1.1-1.5,1.1H10.4z"/>
<path class="st0" d="M27.6,41.5c1-3.9,4.6-4.8,8.1-4.8h6.6c0.6,0,1.1,0.5,1.1,1.1c0,0,0,0,0,0v15.3c0,0.6-0.5,1.1-1.2,1.1h-2.3
	c-0.6,0-1.1-0.5-1.2-1.1c0,0,0,0,0,0V50h-8.7l-0.8,3.1c-0.2,0.7-0.8,1.1-1.5,1.2h-2.4c-0.5,0-0.9-0.3-0.9-0.8c0-0.1,0-0.2,0.1-0.4
	L27.6,41.5z M31,46.5h7.8v-6.4h-3.5c-1.5-0.1-2.9,1-3.3,2.5L31,46.5z"/>
<path class="st0" d="M62,36.7c0.6,0,1.1,0.5,1.2,1.1c0,0,0,0,0,0V39c0,0.6-0.5,1.1-1.1,1.2c0,0,0,0-0.1,0h-5.5v12.9
	c0,0.6-0.5,1.1-1.2,1.1h-2.3c-0.6,0-1.1-0.5-1.1-1.1V40.2h-5.5c-0.6,0-1.1-0.5-1.2-1.1c0,0,0,0,0-0.1v-1.1c0-0.6,0.5-1.1,1.1-1.2
	c0,0,0,0,0,0H62z"/>
<path class="st0" d="M71.6,36.6h3.1c3.2,0,6.5,1.8,6.5,4.5c0,0.7-0.5,1.3-1.2,1.3c0,0,0,0-0.1,0h-1.4c-0.7,0-1.4-0.5-1.7-1.2
	c-0.5-0.9-1.6-1.4-2.6-1.3h-3.7c-1.5,0-2.2,0.5-2.2,1.4c0,2.9,13.2,1.2,13.2,7.8c0,3-1.8,5.1-7.8,5.1h-3.7c-3.2,0-6.5-1.8-6.5-4.5
	c0-0.7,0.5-1.3,1.2-1.3c0,0,0.1,0,0.1,0h1.4c0.7,0,1.4,0.5,1.6,1.2c0.5,0.9,1.6,1.4,2.6,1.3h4.3c1.5,0,2.2-0.5,2.2-1.4
	c0-2.9-13.2-1.3-13.2-7.8C63.8,38.7,65.5,36.6,71.6,36.6"/>
<path class="st0" d="M100.5,37.9V39c0,0.6-0.5,1.2-1.2,1.2l0,0H88.7v3.5h9.2c0.6,0,1.1,0.5,1.1,1.2V46c0,0.6-0.5,1.1-1.2,1.2h-9.1
	v3.6h10.6c0.6,0,1.1,0.5,1.1,1.1c0,0,0,0,0,0V53c0,0.6-0.5,1.2-1.2,1.2l0,0h-14c-0.6,0-1.2-0.5-1.2-1.1c0,0,0-0.1,0-0.1V37.8
	c0-0.6,0.5-1.1,1.2-1.1h14.1C100,36.7,100.5,37.2,100.5,37.9L100.5,37.9"/>
<path class="st0" d="M109.7,36.6h3.1c3.2,0,6.5,1.8,6.5,4.5c0,0.7-0.5,1.3-1.2,1.3c0,0,0,0-0.1,0h-1.4c-0.7,0-1.4-0.5-1.6-1.1
	c-0.5-0.9-1.6-1.4-2.6-1.3h-3.7c-1.5,0-2.2,0.5-2.2,1.4c0,2.9,13.2,1.2,13.2,7.8c0,3-1.8,5.1-7.8,5.1h-3.7c-3.2,0-6.5-1.8-6.5-4.5
	c-0.1-0.7,0.5-1.3,1.2-1.3c0,0,0,0,0,0h1.4c0.7,0,1.4,0.5,1.7,1.2c0.5,0.9,1.6,1.4,2.6,1.3h4.3c1.5,0,2.2-0.5,2.2-1.4
	c0-2.9-13.2-1.3-13.2-7.8C101.9,38.7,103.7,36.6,109.7,36.6"/>
</svg>
